STARTFONT 2.1
FONT -FontForge-Ostrich Sans-Heavy-R-Normal-Sans-26-250-75-75--94--
SIZE 25 75 75
FONTBOUNDINGBOX 19 29 -3 -6
COMMENT "Generated by fontforge, http://fontforge.sourceforge.net"
COMMENT "Copyright (c) 2013 by The League of Moveable Type. All rights reserved."
STARTPROPERTIES 39
FOUNDRY "FontForge"
FAMILY_NAME "Ostrich Sans"
WEIGHT_NAME "Heavy"
SLANT "R"
SETWIDTH_NAME "Normal"
ADD_STYLE_NAME "Sans"
PIXEL_SIZE 26
POINT_SIZE 250
RESOLUTION_X 75
RESOLUTION_Y 75
SPACING ""
AVERAGE_WIDTH 0
CHARSET_REGISTRY ""
CHARSET_ENCODING ""
FONTNAME_REGISTRY ""
CHARSET_COLLECTIONS "ISO10646-1"
FONT_NAME "OstrichSans-Heavy"
FACE_NAME "Ostrich Sans Heavy"
COPYRIGHT "Copyright (c) 2013 by The League of Moveable Type. All rights reserved."
FONT_VERSION "001.001"
FONT_ASCENT 21
FONT_DESCENT 5
UNDERLINE_POSITION -2
UNDERLINE_THICKNESS 2
X_HEIGHT 17
CAP_HEIGHT 17
RAW_ASCENT 800
RAW_DESCENT 200
NORM_SPACE 5
RELATIVE_WEIGHT 90
RELATIVE_SETWIDTH 50
SUPERSCRIPT_X 0
SUPERSCRIPT_Y 9
SUPERSCRIPT_SIZE 15
SUBSCRIPT_X 0
SUBSCRIPT_Y 1
SUBSCRIPT_SIZE 15
AVG_LOWERCASE_WIDTH 101
AVG_UPPERCASE_WIDTH 101
ENDPROPERTIES
CHARS 310
STARTCHAR CR
ENCODING 13
SWIDTH 210 0
DWIDTH 5 0
BBX 1 1 0 0
BITMAP
00
ENDCHAR
STARTCHAR space
ENCODING 32
SWIDTH 210 0
DWIDTH 5 0
BBX 1 1 0 0
BITMAP
00
ENDCHAR
STARTCHAR exclam
ENCODING 33
SWIDTH 143 0
DWIDTH 4 0
BBX 2 18 0 0
BITMAP
40
C0
C0
C0
C0
C0
C0
C0
C0
C0
C0
C0
C0
C0
00
C0
C0
C0
ENDCHAR
STARTCHAR quotedbl
ENCODING 34
SWIDTH 212 0
DWIDTH 6 0
BBX 4 4 0 14
BITMAP
F0
F0
F0
F0
ENDCHAR
STARTCHAR numbersign
ENCODING 35
SWIDTH 592 0
DWIDTH 15 0
BBX 14 17 -1 0
BITMAP
0330
0730
0770
0770
0770
7FFC
7FFC
0EE0
0EE0
7FF8
FFF8
7FF8
1DC0
1DC0
1DC0
1980
1980
ENDCHAR
STARTCHAR dollar
ENCODING 36
SWIDTH 398 0
DWIDTH 10 0
BBX 9 21 0 -2
BITMAP
1C00
1C00
7E00
7F00
E700
E380
E380
E300
7000
7800
3E00
0F00
0700
E300
E380
E380
FF00
7F00
3E00
1C00
1800
ENDCHAR
STARTCHAR percent
ENCODING 37
SWIDTH 554 0
DWIDTH 14 0
BBX 14 17 0 0
BITMAP
7860
FCE0
FCE0
FDC0
FDC0
FD80
7B80
3380
0700
0778
06FC
0EFC
0EFC
1CFC
1CFC
18F8
3878
ENDCHAR
STARTCHAR ampersand
ENCODING 38
SWIDTH 479 0
DWIDTH 12 0
BBX 10 18 0 0
BITMAP
0800
3E00
3E00
7700
7700
3700
3E00
3E00
3C00
7CC0
7FC0
EFC0
E7C0
C3C0
E380
FFC0
7FC0
3EC0
ENDCHAR
STARTCHAR quotesingle
ENCODING 39
SWIDTH 131 0
DWIDTH 3 0
BBX 2 4 0 14
BITMAP
C0
C0
C0
C0
ENDCHAR
STARTCHAR parenleft
ENCODING 40
SWIDTH 216 0
DWIDTH 6 0
BBX 4 17 0 0
BITMAP
30
70
60
E0
E0
E0
C0
C0
C0
C0
E0
E0
E0
E0
70
70
30
ENDCHAR
STARTCHAR parenright
ENCODING 41
SWIDTH 208 0
DWIDTH 5 0
BBX 4 17 0 0
BITMAP
E0
E0
70
70
30
30
30
30
30
30
30
30
70
70
60
E0
C0
ENDCHAR
STARTCHAR asterisk
ENCODING 42
SWIDTH 345 0
DWIDTH 9 0
BBX 8 7 0 10
BITMAP
18
5E
FF
FE
7C
7E
64
ENDCHAR
STARTCHAR plus
ENCODING 43
SWIDTH 434 0
DWIDTH 11 0
BBX 9 9 0 4
BITMAP
0C00
1C00
1C00
FF80
FF80
7F80
1C00
1C00
0C00
ENDCHAR
STARTCHAR comma
ENCODING 44
SWIDTH 135 0
DWIDTH 4 0
BBX 3 4 0 -1
BITMAP
C0
E0
E0
C0
ENDCHAR
STARTCHAR hyphen
ENCODING 45
SWIDTH 349 0
DWIDTH 9 0
BBX 8 3 0 7
BITMAP
FE
FF
7E
ENDCHAR
STARTCHAR period
ENCODING 46
SWIDTH 131 0
DWIDTH 3 0
BBX 3 3 0 0
BITMAP
C0
E0
C0
ENDCHAR
STARTCHAR slash
ENCODING 47
SWIDTH 434 0
DWIDTH 11 0
BBX 9 18 0 0
BITMAP
0100
0380
0380
0300
0700
0700
0E00
0E00
0C00
1C00
1C00
3800
3800
3000
7000
7000
E000
E000
ENDCHAR
STARTCHAR zero
ENCODING 48
SWIDTH 370 0
DWIDTH 10 0
BBX 8 18 0 0
BITMAP
10
7C
FE
E6
E7
E7
E7
E7
E7
E7
E7
E7
E7
E7
E6
FE
7E
3C
ENDCHAR
STARTCHAR one
ENCODING 49
SWIDTH 244 0
DWIDTH 6 0
BBX 5 18 0 0
BITMAP
10
38
78
F8
F8
78
38
38
38
38
38
38
38
38
38
38
38
38
ENDCHAR
STARTCHAR two
ENCODING 50
SWIDTH 370 0
DWIDTH 10 0
BBX 8 18 0 0
BITMAP
10
7C
7E
E7
E7
E7
07
0E
0E
1C
3C
78
70
E0
E0
FE
FF
FF
ENDCHAR
STARTCHAR three
ENCODING 51
SWIDTH 353 0
DWIDTH 9 0
BBX 8 18 0 0
BITMAP
10
7C
7E
E6
E7
E7
47
0E
3E
3C
1E
06
E7
E7
E7
FE
7E
3C
ENDCHAR
STARTCHAR four
ENCODING 52
SWIDTH 374 0
DWIDTH 10 0
BBX 8 18 0 0
BITMAP
02
07
07
0F
0F
1F
1F
3F
37
77
E7
FF
FF
07
07
07
07
03
ENDCHAR
STARTCHAR five
ENCODING 53
SWIDTH 360 0
DWIDTH 9 0
BBX 8 18 0 0
BITMAP
FE
FF
FE
E0
E0
E0
F8
FE
FE
E7
E7
47
07
E7
E7
EE
FE
7C
ENDCHAR
STARTCHAR six
ENCODING 54
SWIDTH 362 0
DWIDTH 9 0
BBX 8 18 0 0
BITMAP
18
7E
7E
E6
E7
E6
F8
FE
FE
E6
E7
E7
E7
E7
E6
FE
7E
3C
ENDCHAR
STARTCHAR seven
ENCODING 55
SWIDTH 426 0
DWIDTH 11 0
BBX 10 18 0 0
BITMAP
7F80
FFC0
FF80
0380
0380
0700
0700
0600
0E00
0E00
1C00
1C00
3800
3800
3000
7000
7000
6000
ENDCHAR
STARTCHAR eight
ENCODING 56
SWIDTH 382 0
DWIDTH 10 0
BBX 8 17 0 0
BITMAP
7E
FF
E7
E7
E7
E7
E7
7F
7E
FF
E7
E7
E7
E7
FF
7E
3C
ENDCHAR
STARTCHAR nine
ENCODING 57
SWIDTH 358 0
DWIDTH 9 0
BBX 8 17 0 0
BITMAP
7C
7E
EE
E7
E7
E7
E7
E7
EF
7F
7F
07
E7
E6
FE
7E
7C
ENDCHAR
STARTCHAR colon
ENCODING 58
SWIDTH 163 0
DWIDTH 4 0
BBX 3 10 0 4
BITMAP
C0
E0
E0
40
00
00
C0
E0
E0
C0
ENDCHAR
STARTCHAR semicolon
ENCODING 59
SWIDTH 147 0
DWIDTH 4 0
BBX 3 11 0 3
BITMAP
C0
E0
E0
C0
00
00
00
E0
E0
E0
C0
ENDCHAR
STARTCHAR less
ENCODING 60
SWIDTH 292 0
DWIDTH 8 0
BBX 6 9 0 5
BITMAP
0C
3C
78
F0
E0
F0
78
3C
1C
ENDCHAR
STARTCHAR equal
ENCODING 61
SWIDTH 362 0
DWIDTH 9 0
BBX 8 8 0 4
BITMAP
FE
FF
FE
00
00
FE
FF
FE
ENDCHAR
STARTCHAR greater
ENCODING 62
SWIDTH 292 0
DWIDTH 8 0
BBX 6 9 0 5
BITMAP
C0
E0
78
3C
1C
3C
78
F0
E0
ENDCHAR
STARTCHAR question
ENCODING 63
SWIDTH 353 0
DWIDTH 9 0
BBX 8 17 0 0
BITMAP
7C
7E
E7
E7
E7
C7
0E
0E
1C
18
38
38
38
00
30
38
30
ENDCHAR
STARTCHAR at
ENCODING 64
SWIDTH 697 0
DWIDTH 18 0
BBX 16 17 0 0
BITMAP
01C0
0FF8
1FFC
3C1E
798E
77E6
6FE7
EEE7
ECE7
EFEE
EFFE
E7FC
7070
780E
3FFE
0FFC
03E0
ENDCHAR
STARTCHAR A
ENCODING 65
SWIDTH 442 0
DWIDTH 11 0
BBX 10 18 0 0
BITMAP
0800
0C00
1C00
1E00
1E00
1E00
3E00
3F00
3F00
3700
3300
7F00
7F80
6380
6380
E180
E1C0
E1C0
ENDCHAR
STARTCHAR B
ENCODING 66
SWIDTH 386 0
DWIDTH 10 0
BBX 8 18 0 0
BITMAP
70
FE
FF
E7
E7
E7
E7
E7
FE
FE
FF
E7
E7
E7
E7
FF
FE
FC
ENDCHAR
STARTCHAR C
ENCODING 67
SWIDTH 394 0
DWIDTH 10 0
BBX 9 18 0 0
BITMAP
0800
7E00
7F00
E700
E300
E380
E300
E000
E000
E000
E000
E000
E380
E300
E300
FF00
7F00
3C00
ENDCHAR
STARTCHAR D
ENCODING 68
SWIDTH 398 0
DWIDTH 10 0
BBX 8 18 0 0
BITMAP
70
FE
FF
E7
E7
E3
E3
E3
E3
E3
E3
E3
E3
E3
E7
FF
FE
FC
ENDCHAR
STARTCHAR E
ENCODING 69
SWIDTH 353 0
DWIDTH 9 0
BBX 7 18 0 0
BITMAP
7E
FE
FE
E0
E0
E0
E0
E0
FE
FE
FC
E0
E0
E0
E0
FE
FE
FE
ENDCHAR
STARTCHAR F
ENCODING 70
SWIDTH 358 0
DWIDTH 9 0
BBX 7 18 0 0
BITMAP
FE
FE
FE
E0
E0
E0
E0
E0
FC
FC
E0
E0
E0
E0
E0
E0
E0
C0
ENDCHAR
STARTCHAR G
ENCODING 71
SWIDTH 402 0
DWIDTH 10 0
BBX 9 18 0 0
BITMAP
0800
7E00
7F00
E700
E380
E380
E300
E000
E000
EF00
EF80
EF80
E380
E380
E300
FF00
7F00
3E00
ENDCHAR
STARTCHAR H
ENCODING 72
SWIDTH 394 0
DWIDTH 10 0
BBX 8 18 0 0
BITMAP
42
E7
E7
E7
E7
E7
E7
E7
FF
FF
FF
E7
E7
E7
E7
E7
E7
E3
ENDCHAR
STARTCHAR I
ENCODING 73
SWIDTH 164 0
DWIDTH 4 0
BBX 3 18 0 0
BITMAP
40
E0
E0
E0
E0
E0
E0
E0
E0
E0
E0
E0
E0
E0
E0
E0
E0
C0
ENDCHAR
STARTCHAR J
ENCODING 74
SWIDTH 374 0
DWIDTH 10 0
BBX 8 18 0 0
BITMAP
02
07
07
07
07
07
07
07
07
07
07
07
C7
C7
E7
FE
7E
3C
ENDCHAR
STARTCHAR K
ENCODING 75
SWIDTH 388 0
DWIDTH 10 0
BBX 9 18 0 0
BITMAP
4100
E380
E700
E700
EE00
EE00
FC00
F800
F800
F800
F800
FC00
FE00
EE00
E700
E700
E380
C380
ENDCHAR
STARTCHAR L
ENCODING 76
SWIDTH 335 0
DWIDTH 9 0
BBX 7 18 0 0
BITMAP
40
C0
C0
C0
C0
C0
C0
C0
C0
C0
C0
C0
C0
C0
C0
FC
FE
FE
ENDCHAR
STARTCHAR M
ENCODING 77
SWIDTH 443 0
DWIDTH 12 0
BBX 9 18 0 0
BITMAP
4100
E180
E380
E380
E380
E380
F380
F780
F780
F780
F780
FF80
FF80
FD80
FD80
FD80
FD80
CD80
ENDCHAR
STARTCHAR N
ENCODING 78
SWIDTH 410 0
DWIDTH 11 0
BBX 9 18 0 0
BITMAP
4100
E380
E380
E380
F380
F380
FB80
FB80
FB80
FF80
FF80
EF80
EF80
E780
E780
E780
E380
C380
ENDCHAR
STARTCHAR O
ENCODING 79
SWIDTH 406 0
DWIDTH 11 0
BBX 9 18 0 0
BITMAP
0800
7E00
7F00
E700
E300
E380
E380
E380
E380
E380
E380
E380
E380
E380
E300
FF00
7F00
3C00
ENDCHAR
STARTCHAR P
ENCODING 80
SWIDTH 390 0
DWIDTH 10 0
BBX 8 18 0 0
BITMAP
FC
FE
FF
E7
E3
E3
E3
E7
FF
FE
E0
E0
E0
E0
E0
E0
E0
E0
ENDCHAR
STARTCHAR Q
ENCODING 81
SWIDTH 398 0
DWIDTH 10 0
BBX 9 18 0 0
BITMAP
3C00
7F00
FF00
E300
E300
E300
E300
E300
E300
E300
E300
E300
E300
EF00
EF00
7F00
7F80
0380
ENDCHAR
STARTCHAR R
ENCODING 82
SWIDTH 398 0
DWIDTH 10 0
BBX 9 18 0 0
BITMAP
FC00
FF00
FF00
E300
E380
E380
E380
EF00
FF00
FE00
EF00
E300
E300
E300
E300
E300
E300
C300
ENDCHAR
STARTCHAR S
ENCODING 83
SWIDTH 398 0
DWIDTH 10 0
BBX 9 18 0 0
BITMAP
3C00
7F00
FF00
E300
E380
E380
F000
7800
3C00
1E00
0F00
C700
E380
E380
E300
7F00
7E00
0800
ENDCHAR
STARTCHAR T
ENCODING 84
SWIDTH 401 0
DWIDTH 10 0
BBX 9 18 0 0
BITMAP
FF00
FF80
7F00
1C00
1C00
1C00
1C00
1C00
1C00
1C00
1C00
1C00
1C00
1C00
1C00
1C00
1C00
0800
ENDCHAR
STARTCHAR U
ENCODING 85
SWIDTH 409 0
DWIDTH 11 0
BBX 8 18 0 0
BITMAP
C3
C3
C3
C3
C3
C3
C3
C3
C3
C3
C3
C3
C3
C3
E7
FF
7E
10
ENDCHAR
STARTCHAR V
ENCODING 86
SWIDTH 435 0
DWIDTH 11 0
BBX 10 18 0 0
BITMAP
E1C0
E1C0
E1C0
6180
7380
7380
7380
3300
3700
3F00
3F00
1E00
1E00
1E00
1E00
1C00
0C00
0C00
ENDCHAR
STARTCHAR W
ENCODING 87
SWIDTH 560 0
DWIDTH 15 0
BBX 13 18 0 0
BITMAP
4210
E738
E730
E730
EF70
6F70
6F70
6FF0
7FE0
7FE0
7DE0
3DE0
3DE0
39E0
39E0
39C0
38C0
18C0
ENDCHAR
STARTCHAR X
ENCODING 88
SWIDTH 442 0
DWIDTH 11 0
BBX 10 18 0 0
BITMAP
4080
E1C0
E180
7380
7300
3700
3E00
3E00
1E00
1C00
1E00
3E00
3F00
7700
7380
E380
E1C0
C1C0
ENDCHAR
STARTCHAR Y
ENCODING 89
SWIDTH 406 0
DWIDTH 11 0
BBX 9 18 0 0
BITMAP
8100
C380
E380
E700
7700
7E00
3E00
3C00
1C00
1C00
1C00
1C00
1C00
1C00
1C00
1C00
1C00
1800
ENDCHAR
STARTCHAR Z
ENCODING 90
SWIDTH 411 0
DWIDTH 11 0
BBX 9 18 0 0
BITMAP
7F00
FF80
FF00
0700
0700
0E00
0E00
0C00
1C00
1C00
3800
3800
7000
7000
6000
FF00
FF00
FF00
ENDCHAR
STARTCHAR backslash
ENCODING 92
SWIDTH 430 0
DWIDTH 11 0
BBX 9 18 0 0
BITMAP
4000
E000
6000
7000
7000
3800
3800
1C00
1C00
1C00
0E00
0E00
0700
0700
0700
0380
0380
0180
ENDCHAR
STARTCHAR asciicircum
ENCODING 94
SWIDTH 237 0
DWIDTH 6 0
BBX 6 4 0 19
BITMAP
30
78
FC
CC
ENDCHAR
STARTCHAR underscore
ENCODING 95
SWIDTH 511 0
DWIDTH 13 0
BBX 12 3 0 -1
BITMAP
FFE0
FFF0
7FE0
ENDCHAR
STARTCHAR grave
ENCODING 96
SWIDTH 222 0
DWIDTH 6 0
BBX 6 4 0 19
BITMAP
E0
F0
7C
1C
ENDCHAR
STARTCHAR a
ENCODING 97
SWIDTH 442 0
DWIDTH 11 0
BBX 10 18 0 0
BITMAP
0800
0C00
1C00
1E00
1E00
1E00
3E00
3F00
3F00
3700
3300
7F00
7F80
6380
6380
E180
E1C0
E1C0
ENDCHAR
STARTCHAR b
ENCODING 98
SWIDTH 386 0
DWIDTH 10 0
BBX 8 18 0 0
BITMAP
70
FE
FF
E7
E7
E7
E7
E7
FE
FE
FF
E7
E7
E7
E7
FF
FE
FC
ENDCHAR
STARTCHAR c
ENCODING 99
SWIDTH 394 0
DWIDTH 10 0
BBX 9 18 0 0
BITMAP
0800
7E00
7F00
E700
E300
E380
E300
E000
E000
E000
E000
E000
E380
E300
E300
FF00
7F00
3C00
ENDCHAR
STARTCHAR d
ENCODING 100
SWIDTH 398 0
DWIDTH 10 0
BBX 8 18 0 0
BITMAP
70
FE
FF
E7
E7
E3
E3
E3
E3
E3
E3
E3
E3
E3
E7
FF
FE
FC
ENDCHAR
STARTCHAR e
ENCODING 101
SWIDTH 353 0
DWIDTH 9 0
BBX 7 18 0 0
BITMAP
7E
FE
FE
E0
E0
E0
E0
E0
FE
FE
FC
E0
E0
E0
E0
FE
FE
FE
ENDCHAR
STARTCHAR f
ENCODING 102
SWIDTH 358 0
DWIDTH 9 0
BBX 7 18 0 0
BITMAP
7E
FE
FE
E0
E0
E0
E0
E0
FC
FC
E0
E0
E0
E0
E0
E0
E0
C0
ENDCHAR
STARTCHAR g
ENCODING 103
SWIDTH 402 0
DWIDTH 10 0
BBX 9 18 0 0
BITMAP
0800
7E00
7F00
E700
E380
E380
E300
E000
E000
EF00
EF80
EF80
E380
E380
E300
FF00
7F00
3E00
ENDCHAR
STARTCHAR h
ENCODING 104
SWIDTH 394 0
DWIDTH 10 0
BBX 8 18 0 0
BITMAP
42
E7
E7
E7
E7
E7
E7
E7
FF
FF
FF
E7
E7
E7
E7
E7
E7
E3
ENDCHAR
STARTCHAR i
ENCODING 105
SWIDTH 164 0
DWIDTH 4 0
BBX 3 18 0 0
BITMAP
40
E0
E0
E0
E0
E0
E0
E0
E0
E0
E0
E0
E0
E0
E0
E0
E0
C0
ENDCHAR
STARTCHAR j
ENCODING 106
SWIDTH 374 0
DWIDTH 10 0
BBX 8 18 0 0
BITMAP
02
07
07
07
07
07
07
07
07
07
07
07
C7
C7
E7
FE
7E
3C
ENDCHAR
STARTCHAR k
ENCODING 107
SWIDTH 410 0
DWIDTH 11 0
BBX 9 18 0 0
BITMAP
4100
E380
E700
E700
EE00
EE00
FC00
F800
F800
F800
F800
FC00
FE00
EE00
E700
E700
E380
C380
ENDCHAR
STARTCHAR l
ENCODING 108
SWIDTH 335 0
DWIDTH 9 0
BBX 7 18 0 0
BITMAP
40
C0
C0
C0
C0
C0
C0
C0
C0
C0
C0
C0
C0
C0
C0
FC
FE
FE
ENDCHAR
STARTCHAR m
ENCODING 109
SWIDTH 443 0
DWIDTH 12 0
BBX 9 18 0 0
BITMAP
4100
E180
E380
E380
E380
E380
F380
F780
F780
F780
F780
FF80
FF80
FD80
FD80
FD80
FD80
CD80
ENDCHAR
STARTCHAR n
ENCODING 110
SWIDTH 410 0
DWIDTH 11 0
BBX 9 18 0 0
BITMAP
4100
E380
E380
E380
F380
F380
FB80
FB80
FB80
FF80
FF80
EF80
EF80
E780
E780
E780
E380
C380
ENDCHAR
STARTCHAR o
ENCODING 111
SWIDTH 406 0
DWIDTH 11 0
BBX 9 18 0 0
BITMAP
0800
7E00
7F00
E700
E300
E380
E380
E380
E380
E380
E380
E380
E380
E380
E300
FF00
7F00
3C00
ENDCHAR
STARTCHAR p
ENCODING 112
SWIDTH 390 0
DWIDTH 10 0
BBX 8 18 0 0
BITMAP
70
FE
FF
E7
E3
E3
E3
E7
FF
FE
E0
E0
E0
E0
E0
E0
E0
E0
ENDCHAR
STARTCHAR q
ENCODING 113
SWIDTH 398 0
DWIDTH 10 0
BBX 9 19 0 -1
BITMAP
0800
7E00
FF00
E700
E300
E300
E300
E300
E300
E300
E300
E300
E300
E300
EF00
FF00
7F00
3F80
0180
ENDCHAR
STARTCHAR r
ENCODING 114
SWIDTH 398 0
DWIDTH 10 0
BBX 9 17 0 0
BITMAP
FE00
FF00
E700
E380
E380
E380
E700
FF00
FE00
FF00
E700
E300
E300
E300
E300
E300
E300
ENDCHAR
STARTCHAR s
ENCODING 115
SWIDTH 398 0
DWIDTH 10 0
BBX 9 18 0 0
BITMAP
0800
7E00
7F00
E700
E380
E380
E300
7000
7800
3E00
0F00
0700
E300
E380
E380
FF00
7F00
3E00
ENDCHAR
STARTCHAR t
ENCODING 116
SWIDTH 401 0
DWIDTH 10 0
BBX 9 18 0 0
BITMAP
7F00
FF80
FF80
1C00
1C00
1C00
1C00
1C00
1C00
1C00
1C00
1C00
1C00
1C00
1C00
1C00
1C00
1800
ENDCHAR
STARTCHAR u
ENCODING 117
SWIDTH 409 0
DWIDTH 11 0
BBX 8 18 0 0
BITMAP
40
C3
C3
C3
C3
C3
C3
C3
C3
C3
C3
C3
C3
C3
E3
FF
7F
3C
ENDCHAR
STARTCHAR v
ENCODING 118
SWIDTH 435 0
DWIDTH 11 0
BBX 10 18 0 0
BITMAP
4080
E1C0
E1C0
6180
6380
7380
7380
7300
3300
3F00
3F00
3F00
1E00
1E00
1E00
1E00
0C00
0C00
ENDCHAR
STARTCHAR w
ENCODING 119
SWIDTH 555 0
DWIDTH 14 0
BBX 13 18 0 0
BITMAP
4210
E738
E730
E730
EF70
6F70
6F70
6FF0
7FE0
7FE0
7DE0
3DE0
3DE0
39E0
39E0
39C0
38C0
18C0
ENDCHAR
STARTCHAR x
ENCODING 120
SWIDTH 442 0
DWIDTH 11 0
BBX 10 18 0 0
BITMAP
4080
E1C0
E180
7380
7300
3700
3E00
3E00
1E00
1C00
1E00
3E00
3F00
7700
7380
E380
E1C0
C1C0
ENDCHAR
STARTCHAR y
ENCODING 121
SWIDTH 406 0
DWIDTH 11 0
BBX 9 18 0 0
BITMAP
8100
C380
E380
E700
7700
7E00
3E00
3C00
1C00
1C00
1C00
1C00
1C00
1C00
1C00
1C00
1C00
1800
ENDCHAR
STARTCHAR z
ENCODING 122
SWIDTH 411 0
DWIDTH 11 0
BBX 9 18 0 0
BITMAP
7F00
FF80
FF00
0700
0700
0E00
0E00
0C00
1C00
1C00
3800
3800
7000
7000
6000
FF00
FF00
FF00
ENDCHAR
STARTCHAR bar
ENCODING 124
SWIDTH 139 0
DWIDTH 4 0
BBX 3 18 0 0
BITMAP
40
E0
E0
E0
E0
E0
E0
E0
E0
E0
E0
E0
E0
E0
E0
E0
E0
C0
ENDCHAR
STARTCHAR asciitilde
ENCODING 126
SWIDTH 322 0
DWIDTH 8 0
BBX 8 3 0 17
BITMAP
7F
FF
FE
ENDCHAR
STARTCHAR exclamdown
ENCODING 161
SWIDTH 143 0
DWIDTH 4 0
BBX 2 17 0 0
BITMAP
C0
C0
C0
40
C0
C0
C0
C0
C0
C0
C0
C0
C0
C0
C0
C0
C0
ENDCHAR
STARTCHAR sterling
ENCODING 163
SWIDTH 373 0
DWIDTH 10 0
BBX 9 17 0 0
BITMAP
3E00
3F00
7300
7200
7000
7000
7000
FE00
FE00
7E00
7000
7000
7000
6000
FF00
FF80
FF00
ENDCHAR
STARTCHAR dieresis
ENCODING 168
SWIDTH 229 0
DWIDTH 6 0
BBX 6 3 0 19
BITMAP
DC
DC
DC
ENDCHAR
STARTCHAR copyright
ENCODING 169
SWIDTH 709 0
DWIDTH 18 0
BBX 16 18 0 0
BITMAP
03E0
0FF8
1FFC
3C1E
7BCE
77E7
67E7
E773
E763
E703
E773
E773
67E7
73E7
39CE
3FFC
0FF8
03E0
ENDCHAR
STARTCHAR registered
ENCODING 174
SWIDTH 723 0
DWIDTH 19 0
BBX 16 18 0 0
BITMAP
03E0
0FF8
1FFC
3C1E
73CE
73E7
63E7
E363
E3E3
E3E3
E3E3
6363
7367
736E
381E
1FFC
0FF8
03E0
ENDCHAR
STARTCHAR macron
ENCODING 175
SWIDTH 231 0
DWIDTH 6 0
BBX 6 3 0 18
BITMAP
FC
FC
78
ENDCHAR
STARTCHAR degree
ENCODING 176
SWIDTH 142 0
DWIDTH 4 0
BBX 4 3 0 17
BITMAP
E0
B0
E0
ENDCHAR
STARTCHAR acute
ENCODING 180
SWIDTH 247 0
DWIDTH 6 0
BBX 6 4 0 19
BITMAP
08
3C
F8
E0
ENDCHAR
STARTCHAR periodcentered
ENCODING 183
SWIDTH 83 0
DWIDTH 2 0
BBX 2 3 0 8
BITMAP
C0
C0
C0
ENDCHAR
STARTCHAR cedilla
ENCODING 184
SWIDTH 201 0
DWIDTH 5 0
BBX 5 7 0 -6
BITMAP
40
60
78
78
98
F8
F0
ENDCHAR
STARTCHAR ordmasculine
ENCODING 186
SWIDTH 140 0
DWIDTH 4 0
BBX 4 3 0 17
BITMAP
E0
B0
E0
ENDCHAR
STARTCHAR questiondown
ENCODING 191
SWIDTH 353 0
DWIDTH 9 0
BBX 8 17 -1 0
BITMAP
0C
0C
0C
0C
0C
0C
1C
1C
38
70
70
63
E3
E7
77
7E
3E
ENDCHAR
STARTCHAR Agrave
ENCODING 192
SWIDTH 442 0
DWIDTH 11 0
BBX 10 22 0 0
BITMAP
3C00
1E00
0700
0000
0800
0C00
1C00
1E00
1E00
1E00
3E00
3F00
3F00
3700
3300
7F00
7F80
6380
6380
E180
E1C0
E1C0
ENDCHAR
STARTCHAR Aacute
ENCODING 193
SWIDTH 442 0
DWIDTH 11 0
BBX 10 22 0 0
BITMAP
0F00
1E00
3C00
0000
0800
0C00
1C00
1E00
1E00
1E00
3E00
3F00
3F00
3700
3300
7F00
7F80
6380
6380
E180
E1C0
E1C0
ENDCHAR
STARTCHAR Acircumflex
ENCODING 194
SWIDTH 442 0
DWIDTH 11 0
BBX 10 22 0 0
BITMAP
1E00
1F00
3F00
0000
0800
0C00
1C00
1E00
1E00
1E00
3E00
3F00
3F00
3700
3300
7F00
7F80
6380
6380
E180
E1C0
E1C0
ENDCHAR
STARTCHAR Atilde
ENCODING 195
SWIDTH 442 0
DWIDTH 11 0
BBX 10 22 0 0
BITMAP
1800
7F80
7F80
0700
0800
0C00
1C00
1E00
1E00
1E00
3E00
3F00
3F00
3700
3300
7F00
7F80
6380
6380
E180
E1C0
E1C0
ENDCHAR
STARTCHAR Adieresis
ENCODING 196
SWIDTH 442 0
DWIDTH 11 0
BBX 10 22 0 0
BITMAP
1200
3F00
3F00
0000
0800
0C00
1C00
1E00
1E00
1E00
3E00
3F00
3F00
3700
3300
7F00
7F80
6380
6380
E180
E1C0
E1C0
ENDCHAR
STARTCHAR Aring
ENCODING 197
SWIDTH 442 0
DWIDTH 11 0
BBX 10 22 0 0
BITMAP
1E00
1200
1E00
0000
0000
0C00
1C00
1E00
1E00
1E00
3E00
3F00
3F00
3700
3300
7F00
7F80
6380
6380
E180
E1C0
E1C0
ENDCHAR
STARTCHAR AE
ENCODING 198
SWIDTH 665 0
DWIDTH 17 0
BBX 15 18 0 0
BITMAP
00FC
01FE
01FE
03C0
03C0
07C0
07C0
0FC0
0FFE
1DFE
1DFC
1FC0
3FC0
31C0
71C0
71FC
E1FE
E1FE
ENDCHAR
STARTCHAR Ccedilla
ENCODING 199
SWIDTH 394 0
DWIDTH 10 0
BBX 9 23 0 -5
BITMAP
0800
7E00
7F00
E700
E300
E380
E300
E000
E000
E000
E000
E000
E380
E300
E300
FF00
7F00
3C00
1800
1E00
1F00
3F00
3E00
ENDCHAR
STARTCHAR Egrave
ENCODING 200
SWIDTH 353 0
DWIDTH 9 0
BBX 7 23 0 0
BITMAP
70
7C
1E
06
00
FE
FE
FE
E0
E0
E0
E0
E0
FE
FE
E0
E0
E0
E0
E0
FE
FE
FE
ENDCHAR
STARTCHAR Eacute
ENCODING 201
SWIDTH 353 0
DWIDTH 9 0
BBX 7 22 0 0
BITMAP
1E
3C
70
00
7E
FE
FE
E0
E0
E0
E0
E0
FE
FE
FC
E0
E0
E0
E0
FE
FE
FE
ENDCHAR
STARTCHAR Ecircumflex
ENCODING 202
SWIDTH 353 0
DWIDTH 9 0
BBX 7 22 0 0
BITMAP
38
7C
7E
00
7E
FE
FE
E0
E0
E0
E0
E0
FE
FE
FC
E0
E0
E0
E0
FE
FE
FE
ENDCHAR
STARTCHAR Edieresis
ENCODING 203
SWIDTH 353 0
DWIDTH 9 0
BBX 7 22 0 0
BITMAP
24
6E
6E
00
7E
FE
FE
E0
E0
E0
E0
E0
FE
FE
FC
E0
E0
E0
E0
FE
FE
FE
ENDCHAR
STARTCHAR Igrave
ENCODING 204
SWIDTH 159 0
DWIDTH 4 0
BBX 6 22 -1 0
BITMAP
E0
78
3C
00
20
70
70
70
70
70
70
70
70
70
70
70
70
70
70
70
70
60
ENDCHAR
STARTCHAR Iacute
ENCODING 205
SWIDTH 159 0
DWIDTH 4 0
BBX 5 22 -1 0
BITMAP
38
F8
E0
00
20
70
70
70
70
70
70
70
70
70
70
70
70
70
70
70
70
60
ENDCHAR
STARTCHAR Icircumflex
ENCODING 206
SWIDTH 159 0
DWIDTH 4 0
BBX 6 22 -2 0
BITMAP
38
7C
FC
00
10
38
38
38
38
38
38
38
38
38
38
38
38
38
38
38
38
30
ENDCHAR
STARTCHAR Idieresis
ENCODING 207
SWIDTH 159 0
DWIDTH 4 0
BBX 6 22 -2 0
BITMAP
44
EC
EC
00
10
38
38
38
38
38
38
38
38
38
38
38
38
38
38
38
38
30
ENDCHAR
STARTCHAR Eth
ENCODING 208
SWIDTH 398 0
DWIDTH 10 0
BBX 10 18 -2 0
BITMAP
1C00
3F80
3FC0
39C0
39C0
38C0
38C0
38C0
FEC0
FEC0
7EC0
38C0
38C0
38C0
39C0
3FC0
3F80
3F00
ENDCHAR
STARTCHAR Ntilde
ENCODING 209
SWIDTH 410 0
DWIDTH 11 0
BBX 9 22 0 0
BITMAP
3800
7F80
FF00
0E00
4100
E380
E380
E380
F380
F380
FB80
FB80
FB80
FF80
FF80
EF80
EF80
E780
E780
E780
E380
C380
ENDCHAR
STARTCHAR Ograve
ENCODING 210
SWIDTH 406 0
DWIDTH 11 0
BBX 9 22 0 0
BITMAP
3800
3E00
0F00
0000
0800
7E00
7F00
E700
E300
E380
E380
E380
E380
E380
E380
E380
E380
E380
E300
FF00
7F00
3C00
ENDCHAR
STARTCHAR Oacute
ENCODING 211
SWIDTH 406 0
DWIDTH 11 0
BBX 9 22 0 0
BITMAP
1E00
3C00
7800
0000
0800
7E00
7F00
E700
E300
E380
E380
E380
E380
E380
E380
E380
E380
E380
E300
FF00
7F00
3C00
ENDCHAR
STARTCHAR Ocircumflex
ENCODING 212
SWIDTH 406 0
DWIDTH 11 0
BBX 9 22 0 0
BITMAP
1C00
3E00
7E00
0000
0800
7E00
7F00
E700
E300
E380
E380
E380
E380
E380
E380
E380
E380
E380
E300
FF00
7F00
3C00
ENDCHAR
STARTCHAR Otilde
ENCODING 213
SWIDTH 406 0
DWIDTH 11 0
BBX 9 22 0 0
BITMAP
3800
7F00
FF00
0E00
0800
7E00
7F00
E700
E300
E380
E380
E380
E380
E380
E380
E380
E380
E380
E300
FF00
7F00
3C00
ENDCHAR
STARTCHAR Odieresis
ENCODING 214
SWIDTH 406 0
DWIDTH 11 0
BBX 9 22 0 0
BITMAP
2200
7600
7600
0000
0800
7E00
7F00
E700
E300
E380
E380
E380
E380
E380
E380
E380
E380
E380
E300
FF00
7F00
3C00
ENDCHAR
STARTCHAR multiply
ENCODING 215
SWIDTH 294 0
DWIDTH 8 0
BBX 6 6 0 6
BITMAP
CC
FC
7C
78
FC
EC
ENDCHAR
STARTCHAR Oslash
ENCODING 216
SWIDTH 406 0
DWIDTH 11 0
BBX 9 18 0 0
BITMAP
0900
7F80
7F80
E700
E700
E780
EF80
EF80
FF80
FF80
FB80
FB80
FB80
F380
F300
FF00
FF00
FC00
ENDCHAR
STARTCHAR Ugrave
ENCODING 217
SWIDTH 409 0
DWIDTH 11 0
BBX 8 23 0 0
BITMAP
30
3C
1E
06
00
C3
C3
C3
C3
C3
C3
C3
C3
C3
C3
C3
C3
C3
C3
E7
FF
7E
10
ENDCHAR
STARTCHAR Uacute
ENCODING 218
SWIDTH 409 0
DWIDTH 11 0
BBX 8 23 0 0
BITMAP
06
1E
3C
30
00
C3
C3
C3
C3
C3
C3
C3
C3
C3
C3
C3
C3
C3
C3
E7
FF
7E
10
ENDCHAR
STARTCHAR Ucircumflex
ENCODING 219
SWIDTH 409 0
DWIDTH 11 0
BBX 8 23 0 0
BITMAP
18
3C
7E
7E
00
C3
C3
C3
C3
C3
C3
C3
C3
C3
C3
C3
C3
C3
C3
E7
FF
7E
10
ENDCHAR
STARTCHAR Udieresis
ENCODING 220
SWIDTH 409 0
DWIDTH 11 0
BBX 8 22 0 0
BITMAP
76
76
76
00
C3
C3
C3
C3
C3
C3
C3
C3
C3
C3
C3
C3
C3
C3
E7
FF
7E
10
ENDCHAR
STARTCHAR Yacute
ENCODING 221
SWIDTH 406 0
DWIDTH 11 0
BBX 9 22 0 0
BITMAP
0E00
3E00
3800
0000
8100
C380
E380
E700
7700
7E00
3E00
3C00
1C00
1C00
1C00
1C00
1C00
1C00
1C00
1C00
1C00
1800
ENDCHAR
STARTCHAR Thorn
ENCODING 222
SWIDTH 386 0
DWIDTH 10 0
BBX 9 18 0 0
BITMAP
C000
C000
C000
C000
FC00
FF00
FF80
C380
C180
C180
C380
FF80
FF00
F800
C000
C000
C000
C000
ENDCHAR
STARTCHAR germandbls
ENCODING 223
SWIDTH 376 0
DWIDTH 10 0
BBX 8 17 0 0
BITMAP
3C
7E
FE
E6
C7
C6
C6
CE
DE
DE
C7
C3
C3
C3
CF
DF
DE
ENDCHAR
STARTCHAR agrave
ENCODING 224
SWIDTH 442 0
DWIDTH 11 0
BBX 10 22 0 0
BITMAP
3C00
1E00
0700
0000
0800
0C00
1C00
1E00
1E00
1E00
3E00
3F00
3F00
3700
3300
7F00
7F80
6380
6380
E180
E1C0
E1C0
ENDCHAR
STARTCHAR aacute
ENCODING 225
SWIDTH 442 0
DWIDTH 11 0
BBX 10 22 0 0
BITMAP
0F00
1E00
3C00
0000
0800
0C00
1C00
1E00
1E00
1E00
3E00
3F00
3F00
3700
3300
7F00
7F80
6380
6380
E180
E1C0
E1C0
ENDCHAR
STARTCHAR acircumflex
ENCODING 226
SWIDTH 442 0
DWIDTH 11 0
BBX 10 22 0 0
BITMAP
1E00
1F00
3F00
0000
0800
0C00
1C00
1E00
1E00
1E00
3E00
3F00
3F00
3700
3300
7F00
7F80
6380
6380
E180
E1C0
E1C0
ENDCHAR
STARTCHAR atilde
ENCODING 227
SWIDTH 442 0
DWIDTH 11 0
BBX 10 22 0 0
BITMAP
1800
7F80
7F80
0700
0800
0C00
1C00
1E00
1E00
1E00
3E00
3F00
3F00
3700
3300
7F00
7F80
6380
6380
E180
E1C0
E1C0
ENDCHAR
STARTCHAR adieresis
ENCODING 228
SWIDTH 442 0
DWIDTH 11 0
BBX 10 22 0 0
BITMAP
1200
3F00
3F00
0000
0800
0C00
1C00
1E00
1E00
1E00
3E00
3F00
3F00
3700
3300
7F00
7F80
6380
6380
E180
E1C0
E1C0
ENDCHAR
STARTCHAR aring
ENCODING 229
SWIDTH 442 0
DWIDTH 11 0
BBX 10 22 0 0
BITMAP
1E00
1200
1E00
0000
0000
0C00
1C00
1E00
1E00
1E00
3E00
3F00
3F00
3700
3300
7F00
7F80
6380
6380
E180
E1C0
E1C0
ENDCHAR
STARTCHAR ae
ENCODING 230
SWIDTH 665 0
DWIDTH 17 0
BBX 14 17 0 0
BITMAP
01FC
01FC
03FC
03C0
07C0
07C0
07C0
0FFC
0DFC
1DFC
1FC0
3FC0
39C0
71C0
71C0
E1FC
E1FC
ENDCHAR
STARTCHAR ccedilla
ENCODING 231
SWIDTH 394 0
DWIDTH 10 0
BBX 9 23 0 -5
BITMAP
0800
7E00
7F00
E700
E300
E380
E300
E000
E000
E000
E000
E000
E380
E300
E300
FF00
7F00
3C00
1800
1E00
1F00
3F00
3E00
ENDCHAR
STARTCHAR egrave
ENCODING 232
SWIDTH 353 0
DWIDTH 9 0
BBX 7 23 0 0
BITMAP
70
7C
1E
06
00
FE
FE
FE
E0
E0
E0
E0
E0
FE
FE
E0
E0
E0
E0
E0
FE
FE
FE
ENDCHAR
STARTCHAR eacute
ENCODING 233
SWIDTH 353 0
DWIDTH 9 0
BBX 7 22 0 0
BITMAP
1E
3C
70
00
7E
FE
FE
E0
E0
E0
E0
E0
FE
FE
FC
E0
E0
E0
E0
FE
FE
FE
ENDCHAR
STARTCHAR ecircumflex
ENCODING 234
SWIDTH 353 0
DWIDTH 9 0
BBX 7 22 0 0
BITMAP
38
7C
7E
00
7E
FE
FE
E0
E0
E0
E0
E0
FE
FE
FC
E0
E0
E0
E0
FE
FE
FE
ENDCHAR
STARTCHAR edieresis
ENCODING 235
SWIDTH 353 0
DWIDTH 9 0
BBX 7 22 0 0
BITMAP
24
6E
6E
00
7E
FE
FE
E0
E0
E0
E0
E0
FE
FE
FC
E0
E0
E0
E0
FE
FE
FE
ENDCHAR
STARTCHAR igrave
ENCODING 236
SWIDTH 159 0
DWIDTH 4 0
BBX 6 22 -1 0
BITMAP
E0
78
3C
00
20
70
70
70
70
70
70
70
70
70
70
70
70
70
70
70
70
60
ENDCHAR
STARTCHAR iacute
ENCODING 237
SWIDTH 159 0
DWIDTH 4 0
BBX 5 22 -1 0
BITMAP
38
F8
E0
00
20
70
70
70
70
70
70
70
70
70
70
70
70
70
70
70
70
60
ENDCHAR
STARTCHAR icircumflex
ENCODING 238
SWIDTH 159 0
DWIDTH 4 0
BBX 6 22 -2 0
BITMAP
38
7C
FC
00
10
38
38
38
38
38
38
38
38
38
38
38
38
38
38
38
38
30
ENDCHAR
STARTCHAR idieresis
ENCODING 239
SWIDTH 159 0
DWIDTH 4 0
BBX 6 22 -2 0
BITMAP
44
EC
EC
00
10
38
38
38
38
38
38
38
38
38
38
38
38
38
38
38
38
30
ENDCHAR
STARTCHAR eth
ENCODING 240
SWIDTH 398 0
DWIDTH 10 0
BBX 10 17 -2 0
BITMAP
3F00
3F80
3FC0
39C0
39C0
39C0
39C0
FFC0
FFC0
FFC0
39C0
39C0
39C0
39C0
3BC0
3F80
3F00
ENDCHAR
STARTCHAR ntilde
ENCODING 241
SWIDTH 410 0
DWIDTH 11 0
BBX 9 22 0 0
BITMAP
3800
7F80
FF00
0E00
4100
E380
E380
E380
F380
F380
FB80
FB80
FB80
FF80
FF80
EF80
EF80
E780
E780
E780
E380
C380
ENDCHAR
STARTCHAR ograve
ENCODING 242
SWIDTH 406 0
DWIDTH 11 0
BBX 9 22 0 0
BITMAP
3800
3E00
0F00
0000
0800
7E00
7F00
E700
E300
E380
E380
E380
E380
E380
E380
E380
E380
E380
E300
FF00
7F00
3C00
ENDCHAR
STARTCHAR oacute
ENCODING 243
SWIDTH 406 0
DWIDTH 11 0
BBX 9 22 0 0
BITMAP
0E00
3E00
3800
0000
0800
7E00
7F00
E700
E300
E380
E380
E380
E380
E380
E380
E380
E380
E380
E300
FF00
7F00
3C00
ENDCHAR
STARTCHAR ocircumflex
ENCODING 244
SWIDTH 406 0
DWIDTH 11 0
BBX 9 22 0 0
BITMAP
1C00
3E00
7E00
0000
0800
7E00
7F00
E700
E300
E380
E380
E380
E380
E380
E380
E380
E380
E380
E300
FF00
7F00
3C00
ENDCHAR
STARTCHAR otilde
ENCODING 245
SWIDTH 406 0
DWIDTH 11 0
BBX 9 22 0 0
BITMAP
3800
7F00
FF00
0E00
0800
7E00
7F00
E700
E300
E380
E380
E380
E380
E380
E380
E380
E380
E380
E300
FF00
7F00
3C00
ENDCHAR
STARTCHAR odieresis
ENCODING 246
SWIDTH 406 0
DWIDTH 11 0
BBX 9 22 0 0
BITMAP
2200
7600
7600
0000
0800
7E00
7F00
E700
E300
E380
E380
E380
E380
E380
E380
E380
E380
E380
E300
FF00
7F00
3C00
ENDCHAR
STARTCHAR divide
ENCODING 247
SWIDTH 163 0
DWIDTH 4 0
BBX 3 10 0 4
BITMAP
C0
E0
E0
40
00
00
C0
E0
E0
C0
ENDCHAR
STARTCHAR oslash
ENCODING 248
SWIDTH 406 0
DWIDTH 11 0
BBX 9 18 0 0
BITMAP
0900
7F80
7F80
E700
E700
E780
EF80
EF80
FF80
FF80
FB80
FB80
FB80
F380
F300
FF00
FF00
FC00
ENDCHAR
STARTCHAR ugrave
ENCODING 249
SWIDTH 409 0
DWIDTH 11 0
BBX 8 23 0 0
BITMAP
30
3C
1E
06
00
C3
C3
C3
C3
C3
C3
C3
C3
C3
C3
C3
C3
C3
C3
E7
FF
7E
10
ENDCHAR
STARTCHAR uacute
ENCODING 250
SWIDTH 409 0
DWIDTH 11 0
BBX 8 23 0 0
BITMAP
06
1E
3C
30
00
C3
C3
C3
C3
C3
C3
C3
C3
C3
C3
C3
C3
C3
C3
E7
FF
7E
10
ENDCHAR
STARTCHAR ucircumflex
ENCODING 251
SWIDTH 409 0
DWIDTH 11 0
BBX 8 23 0 0
BITMAP
18
3C
7E
7E
00
C3
C3
C3
C3
C3
C3
C3
C3
C3
C3
C3
C3
C3
C3
E7
FF
7E
10
ENDCHAR
STARTCHAR udieresis
ENCODING 252
SWIDTH 409 0
DWIDTH 11 0
BBX 8 22 0 0
BITMAP
76
76
76
00
C3
C3
C3
C3
C3
C3
C3
C3
C3
C3
C3
C3
C3
C3
E7
FF
7E
10
ENDCHAR
STARTCHAR yacute
ENCODING 253
SWIDTH 406 0
DWIDTH 11 0
BBX 9 22 0 0
BITMAP
0E00
3E00
3800
0000
8100
C380
E380
E700
7700
7E00
3E00
3C00
1C00
1C00
1C00
1C00
1C00
1C00
1C00
1C00
1C00
1800
ENDCHAR
STARTCHAR thorn
ENCODING 254
SWIDTH 386 0
DWIDTH 10 0
BBX 9 17 0 0
BITMAP
C000
C000
C000
C000
C000
FF00
FF80
C380
C180
C380
FF80
FF00
F800
C000
C000
C000
C000
ENDCHAR
STARTCHAR ydieresis
ENCODING 255
SWIDTH 406 0
DWIDTH 11 0
BBX 9 22 0 0
BITMAP
2200
7600
7600
0000
8100
C380
E380
E700
7700
7E00
3E00
3C00
1C00
1C00
1C00
1C00
1C00
1C00
1C00
1C00
1C00
1800
ENDCHAR
STARTCHAR Amacron
ENCODING 256
SWIDTH 442 0
DWIDTH 11 0
BBX 10 21 0 0
BITMAP
3F00
3F00
0000
0800
0C00
1C00
1E00
1E00
1E00
3E00
3F00
3F00
3700
3300
7F00
7F80
6380
6380
E180
E1C0
E1C0
ENDCHAR
STARTCHAR amacron
ENCODING 257
SWIDTH 442 0
DWIDTH 11 0
BBX 10 21 0 0
BITMAP
3F00
3F00
0000
0800
0C00
1C00
1E00
1E00
1E00
3E00
3F00
3F00
3700
3300
7F00
7F80
6380
6380
E180
E1C0
E1C0
ENDCHAR
STARTCHAR Cacute
ENCODING 262
SWIDTH 394 0
DWIDTH 10 0
BBX 9 22 0 0
BITMAP
0E00
3E00
3800
0000
0800
7E00
7F00
E700
E300
E380
E300
E000
E000
E000
E000
E000
E380
E300
E300
FF00
7F00
3C00
ENDCHAR
STARTCHAR cacute
ENCODING 263
SWIDTH 394 0
DWIDTH 10 0
BBX 9 22 0 0
BITMAP
0E00
3E00
3800
0000
0800
7E00
7F00
E700
E300
E380
E300
E000
E000
E000
E000
E000
E380
E300
E300
FF00
7F00
3C00
ENDCHAR
STARTCHAR Ccircumflex
ENCODING 264
SWIDTH 394 0
DWIDTH 10 0
BBX 9 22 0 0
BITMAP
1C00
3E00
7E00
0000
0800
7E00
7F00
E700
E300
E380
E300
E000
E000
E000
E000
E000
E380
E300
E300
FF00
7F00
3C00
ENDCHAR
STARTCHAR ccircumflex
ENCODING 265
SWIDTH 394 0
DWIDTH 10 0
BBX 9 22 0 0
BITMAP
1C00
3E00
7E00
0000
0800
7E00
7F00
E700
E300
E380
E300
E000
E000
E000
E000
E000
E380
E300
E300
FF00
7F00
3C00
ENDCHAR
STARTCHAR Cdotaccent
ENCODING 266
SWIDTH 394 0
DWIDTH 10 0
BBX 9 21 0 0
BITMAP
1C00
1C00
0800
0800
7E00
7F00
E700
E300
E380
E300
E000
E000
E000
E000
E000
E380
E300
E300
FF00
7F00
3C00
ENDCHAR
STARTCHAR cdotaccent
ENCODING 267
SWIDTH 394 0
DWIDTH 10 0
BBX 9 21 0 0
BITMAP
1C00
1C00
0800
0800
7E00
7F00
E700
E300
E380
E300
E000
E000
E000
E000
E000
E380
E300
E300
FF00
7F00
3C00
ENDCHAR
STARTCHAR Ccaron
ENCODING 268
SWIDTH 394 0
DWIDTH 10 0
BBX 9 22 0 0
BITMAP
7E00
3E00
1C00
0000
0800
7E00
7F00
E700
E300
E380
E300
E000
E000
E000
E000
E000
E380
E300
E300
FF00
7F00
3C00
ENDCHAR
STARTCHAR ccaron
ENCODING 269
SWIDTH 394 0
DWIDTH 10 0
BBX 9 22 0 0
BITMAP
7E00
3E00
1C00
0000
0800
7E00
7F00
E700
E300
E380
E300
E000
E000
E000
E000
E000
E380
E300
E300
FF00
7F00
3C00
ENDCHAR
STARTCHAR Dcaron
ENCODING 270
SWIDTH 398 0
DWIDTH 10 0
BBX 8 22 0 0
BITMAP
7E
7C
38
00
70
FE
FF
E7
E7
E3
E3
E3
E3
E3
E3
E3
E3
E3
E7
FF
FE
FC
ENDCHAR
STARTCHAR dcaron
ENCODING 271
SWIDTH 398 0
DWIDTH 10 0
BBX 8 22 0 0
BITMAP
7E
7C
38
00
70
FE
FF
E7
E7
E3
E3
E3
E3
E3
E3
E3
E3
E3
E7
FF
FE
FC
ENDCHAR
STARTCHAR Dcroat
ENCODING 272
SWIDTH 418 0
DWIDTH 11 0
BBX 10 18 0 0
BITMAP
3800
7F00
7F80
7380
71C0
71C0
71C0
71C0
FDC0
FDC0
F9C0
71C0
71C0
71C0
7180
7F80
7F80
3E00
ENDCHAR
STARTCHAR dcroat
ENCODING 273
SWIDTH 418 0
DWIDTH 11 0
BBX 9 17 0 0
BITMAP
3E00
3F00
3F80
3180
3180
3180
3180
FD80
FD80
FD80
3180
3180
3180
3180
3780
3F80
3E00
ENDCHAR
STARTCHAR Emacron
ENCODING 274
SWIDTH 353 0
DWIDTH 9 0
BBX 7 21 0 0
BITMAP
7E
7E
00
7E
FE
FE
E0
E0
E0
E0
E0
FE
FE
FC
E0
E0
E0
E0
FE
FE
FE
ENDCHAR
STARTCHAR emacron
ENCODING 275
SWIDTH 353 0
DWIDTH 9 0
BBX 7 21 0 0
BITMAP
7E
7E
00
7E
FE
FE
E0
E0
E0
E0
E0
FE
FE
FC
E0
E0
E0
E0
FE
FE
FE
ENDCHAR
STARTCHAR Ebreve
ENCODING 276
SWIDTH 353 0
DWIDTH 9 0
BBX 7 22 0 0
BITMAP
6E
7E
7C
00
7E
FE
FE
E0
E0
E0
E0
E0
FE
FE
FC
E0
E0
E0
E0
FE
FE
FE
ENDCHAR
STARTCHAR ebreve
ENCODING 277
SWIDTH 353 0
DWIDTH 9 0
BBX 7 22 0 0
BITMAP
6E
7E
7C
00
7E
FE
FE
E0
E0
E0
E0
E0
FE
FE
FC
E0
E0
E0
E0
FE
FE
FE
ENDCHAR
STARTCHAR Edotaccent
ENCODING 278
SWIDTH 353 0
DWIDTH 9 0
BBX 7 21 0 0
BITMAP
18
18
10
7E
FE
FE
E0
E0
E0
E0
E0
FE
FE
FC
E0
E0
E0
E0
FE
FE
FE
ENDCHAR
STARTCHAR edotaccent
ENCODING 279
SWIDTH 353 0
DWIDTH 9 0
BBX 7 21 0 0
BITMAP
18
18
10
7E
FE
FE
E0
E0
E0
E0
E0
FE
FE
FC
E0
E0
E0
E0
FE
FE
FE
ENDCHAR
STARTCHAR Ecaron
ENCODING 282
SWIDTH 353 0
DWIDTH 9 0
BBX 7 22 0 0
BITMAP
7E
7C
38
00
7E
FE
FE
E0
E0
E0
E0
E0
FE
FE
FC
E0
E0
E0
E0
FE
FE
FE
ENDCHAR
STARTCHAR ecaron
ENCODING 283
SWIDTH 353 0
DWIDTH 9 0
BBX 7 22 0 0
BITMAP
7E
7C
38
00
7E
FE
FE
E0
E0
E0
E0
E0
FE
FE
FC
E0
E0
E0
E0
FE
FE
FE
ENDCHAR
STARTCHAR Gcircumflex
ENCODING 284
SWIDTH 402 0
DWIDTH 10 0
BBX 9 22 0 0
BITMAP
1C00
3E00
7E00
0000
0800
7E00
7F00
E700
E380
E380
E300
E000
E000
EF00
EF80
EF80
E380
E380
E300
FF00
7F00
3E00
ENDCHAR
STARTCHAR gcircumflex
ENCODING 285
SWIDTH 402 0
DWIDTH 10 0
BBX 9 22 0 0
BITMAP
1C00
3E00
7E00
0000
0800
7E00
7F00
E700
E380
E380
E300
E000
E000
EF00
EF80
EF80
E380
E380
E300
FF00
7F00
3E00
ENDCHAR
STARTCHAR Gbreve
ENCODING 286
SWIDTH 402 0
DWIDTH 10 0
BBX 9 22 0 0
BITMAP
7600
7E00
3E00
0000
0800
7E00
7F00
E700
E380
E380
E300
E000
E000
EF00
EF80
EF80
E380
E380
E300
FF00
7F00
3E00
ENDCHAR
STARTCHAR gbreve
ENCODING 287
SWIDTH 402 0
DWIDTH 10 0
BBX 9 22 0 0
BITMAP
7600
7E00
3E00
0000
0800
7E00
7F00
E700
E380
E380
E300
E000
E000
EF00
EF80
EF80
E380
E380
E300
FF00
7F00
3E00
ENDCHAR
STARTCHAR Gdotaccent
ENCODING 288
SWIDTH 402 0
DWIDTH 10 0
BBX 9 21 0 0
BITMAP
1C00
1C00
0800
0800
7E00
7F00
E700
E380
E380
E300
E000
E000
EF00
EF80
EF80
E380
E380
E300
FF00
7F00
3E00
ENDCHAR
STARTCHAR gdotaccent
ENCODING 289
SWIDTH 402 0
DWIDTH 10 0
BBX 9 21 0 0
BITMAP
1C00
1C00
0800
0800
7E00
7F00
E700
E380
E380
E300
E000
E000
EF00
EF80
EF80
E380
E380
E300
FF00
7F00
3E00
ENDCHAR
STARTCHAR Gcommaaccent
ENCODING 290
SWIDTH 402 0
DWIDTH 10 0
BBX 9 22 0 -5
BITMAP
7E00
7F00
E700
E380
E380
E300
E000
E000
E700
EF80
EF80
E380
E380
E300
FF00
7F00
3E00
0000
1C00
1C00
1C00
1C00
ENDCHAR
STARTCHAR gcommaaccent
ENCODING 291
SWIDTH 402 0
DWIDTH 10 0
BBX 9 22 0 -5
BITMAP
7E00
7F00
E700
E380
E380
E300
E000
E000
E700
EF80
EF80
E380
E380
E300
FF00
7F00
3E00
0000
1C00
1C00
1C00
1C00
ENDCHAR
STARTCHAR Hcircumflex
ENCODING 292
SWIDTH 394 0
DWIDTH 10 0
BBX 8 22 0 0
BITMAP
3C
3E
7E
00
42
E7
E7
E7
E7
E7
E7
E7
FF
FF
FF
E7
E7
E7
E7
E7
E7
E3
ENDCHAR
STARTCHAR hcircumflex
ENCODING 293
SWIDTH 394 0
DWIDTH 10 0
BBX 8 22 0 0
BITMAP
3C
3E
7E
00
42
E7
E7
E7
E7
E7
E7
E7
FF
FF
FF
E7
E7
E7
E7
E7
E7
E3
ENDCHAR
STARTCHAR Itilde
ENCODING 296
SWIDTH 159 0
DWIDTH 4 0
BBX 8 22 -3 0
BITMAP
30
FF
FF
0C
08
1C
1C
1C
1C
1C
1C
1C
1C
1C
1C
1C
1C
1C
1C
1C
1C
18
ENDCHAR
STARTCHAR itilde
ENCODING 297
SWIDTH 159 0
DWIDTH 4 0
BBX 8 22 -3 0
BITMAP
30
FF
FF
0C
08
1C
1C
1C
1C
1C
1C
1C
1C
1C
1C
1C
1C
1C
1C
1C
1C
18
ENDCHAR
STARTCHAR Imacron
ENCODING 298
SWIDTH 159 0
DWIDTH 4 0
BBX 6 21 -2 0
BITMAP
FC
FC
00
10
38
38
38
38
38
38
38
38
38
38
38
38
38
38
38
38
30
ENDCHAR
STARTCHAR imacron
ENCODING 299
SWIDTH 159 0
DWIDTH 4 0
BBX 6 21 -2 0
BITMAP
FC
FC
00
10
38
38
38
38
38
38
38
38
38
38
38
38
38
38
38
38
30
ENDCHAR
STARTCHAR Ibreve
ENCODING 300
SWIDTH 159 0
DWIDTH 4 0
BBX 6 22 -2 0
BITMAP
EC
FC
7C
00
10
38
38
38
38
38
38
38
38
38
38
38
38
38
38
38
38
30
ENDCHAR
STARTCHAR ibreve
ENCODING 301
SWIDTH 159 0
DWIDTH 4 0
BBX 6 22 -2 0
BITMAP
EC
FC
7C
00
10
38
38
38
38
38
38
38
38
38
38
38
38
38
38
38
38
30
ENDCHAR
STARTCHAR Idotaccent
ENCODING 304
SWIDTH 159 0
DWIDTH 4 0
BBX 3 21 0 0
BITMAP
E0
E0
40
40
E0
E0
E0
E0
E0
E0
E0
E0
E0
E0
E0
E0
E0
E0
E0
E0
C0
ENDCHAR
STARTCHAR dotlessi
ENCODING 305
SWIDTH 159 0
DWIDTH 4 0
BBX 3 17 0 0
BITMAP
E0
E0
E0
E0
E0
E0
E0
E0
E0
E0
E0
E0
E0
E0
E0
E0
E0
ENDCHAR
STARTCHAR Jcircumflex
ENCODING 308
SWIDTH 374 0
DWIDTH 10 0
BBX 10 22 0 0
BITMAP
0780
0F80
0FC0
0000
0200
0700
0700
0700
0700
0700
0700
0700
0700
0700
0700
0700
C700
C700
E700
FE00
7E00
3C00
ENDCHAR
STARTCHAR jcircumflex
ENCODING 309
SWIDTH 374 0
DWIDTH 10 0
BBX 10 22 0 0
BITMAP
0780
0F80
0FC0
0000
0200
0700
0700
0700
0700
0700
0700
0700
0700
0700
0700
0700
C700
C700
E700
FE00
7E00
3C00
ENDCHAR
STARTCHAR Kcommaaccent
ENCODING 310
SWIDTH 388 0
DWIDTH 10 0
BBX 9 23 0 -5
BITMAP
4100
E380
E700
E700
EE00
EE00
FC00
F800
F800
F800
F800
FC00
FE00
EE00
E700
E700
E380
C380
0000
1800
1C00
1C00
1800
ENDCHAR
STARTCHAR kcommaaccent
ENCODING 311
SWIDTH 388 0
DWIDTH 10 0
BBX 9 23 0 -5
BITMAP
4100
E380
E700
E700
EE00
EE00
FC00
F800
F800
F800
F800
FC00
FE00
EE00
E700
E700
E380
C380
0000
1800
1C00
1C00
1800
ENDCHAR
STARTCHAR Lacute
ENCODING 313
SWIDTH 335 0
DWIDTH 9 0
BBX 9 22 -2 0
BITMAP
3C00
7800
F000
0000
1000
3000
3000
3000
3000
3000
3000
3000
3000
3000
3000
3000
3000
3000
3000
3F00
3F80
3F80
ENDCHAR
STARTCHAR lacute
ENCODING 314
SWIDTH 335 0
DWIDTH 9 0
BBX 9 22 -2 0
BITMAP
3C00
7800
F000
0000
1000
3000
3000
3000
3000
3000
3000
3000
3000
3000
3000
3000
3000
3000
3000
3F00
3F80
3F80
ENDCHAR
STARTCHAR Lcommaaccent
ENCODING 315
SWIDTH 335 0
DWIDTH 9 0
BBX 7 23 0 -5
BITMAP
40
C0
C0
C0
C0
C0
C0
C0
C0
C0
C0
C0
C0
C0
C0
FC
FE
FE
00
38
38
38
38
ENDCHAR
STARTCHAR lcommaaccent
ENCODING 316
SWIDTH 335 0
DWIDTH 9 0
BBX 7 23 0 -5
BITMAP
40
C0
C0
C0
C0
C0
C0
C0
C0
C0
C0
C0
C0
C0
C0
FC
FE
FE
00
38
38
38
38
ENDCHAR
STARTCHAR Lcaron
ENCODING 317
SWIDTH 335 0
DWIDTH 9 0
BBX 9 20 -2 1
BITMAP
CC00
FC00
7800
3800
3800
3800
3800
3800
3800
3800
3800
3800
3800
3800
3800
3800
3800
3F80
3F80
3F80
ENDCHAR
STARTCHAR Lslash
ENCODING 321
SWIDTH 414 0
DWIDTH 11 0
BBX 11 17 -2 0
BITMAP
1C00
1C00
1C00
1C00
1C00
1F80
1F80
1F00
1E00
3C00
7C00
FC00
FC00
1C00
1FC0
1FE0
1FE0
ENDCHAR
STARTCHAR lslash
ENCODING 322
SWIDTH 414 0
DWIDTH 11 0
BBX 10 17 -2 0
BITMAP
0800
1C00
1C00
1C00
1C00
1D00
1F80
1F00
1E00
1C00
3C00
7C00
FC00
5C00
1C00
1FC0
1FC0
ENDCHAR
STARTCHAR Nacute
ENCODING 323
SWIDTH 410 0
DWIDTH 11 0
BBX 9 22 0 0
BITMAP
1E00
3C00
7800
0000
4100
E380
E380
E380
F380
F380
FB80
FB80
FB80
FF80
FF80
EF80
EF80
E780
E780
E780
E380
C380
ENDCHAR
STARTCHAR nacute
ENCODING 324
SWIDTH 410 0
DWIDTH 11 0
BBX 9 22 0 0
BITMAP
1E00
3C00
7800
0000
4100
E380
E380
E380
F380
F380
FB80
FB80
FB80
FF80
FF80
EF80
EF80
E780
E780
E780
E380
C380
ENDCHAR
STARTCHAR Ncommaaccent
ENCODING 325
SWIDTH 410 0
DWIDTH 11 0
BBX 9 23 0 -5
BITMAP
4100
E380
E380
E380
F380
F380
FB80
FB80
FB80
FF80
FF80
EF80
EF80
E780
E780
E780
E380
C380
0000
0C00
1C00
1C00
0C00
ENDCHAR
STARTCHAR ncommaaccent
ENCODING 326
SWIDTH 410 0
DWIDTH 11 0
BBX 9 23 0 -5
BITMAP
4100
E380
E380
E380
F380
F380
FB80
FB80
FB80
FF80
FF80
EF80
EF80
E780
E780
E780
E380
C380
0000
0C00
1C00
1C00
0C00
ENDCHAR
STARTCHAR Ncaron
ENCODING 327
SWIDTH 410 0
DWIDTH 11 0
BBX 9 22 0 0
BITMAP
7E00
3E00
1C00
0000
4100
E380
E380
E380
F380
F380
FB80
FB80
FB80
FF80
FF80
EF80
EF80
E780
E780
E780
E380
C380
ENDCHAR
STARTCHAR ncaron
ENCODING 328
SWIDTH 410 0
DWIDTH 11 0
BBX 9 22 0 0
BITMAP
7E00
3E00
1C00
0000
4100
E380
E380
E380
F380
F380
FB80
FB80
FB80
FF80
FF80
EF80
EF80
E780
E780
E780
E380
C380
ENDCHAR
STARTCHAR Omacron
ENCODING 332
SWIDTH 406 0
DWIDTH 11 0
BBX 9 21 0 0
BITMAP
7E00
7E00
0000
0800
7E00
7F00
E700
E300
E380
E380
E380
E380
E380
E380
E380
E380
E380
E300
FF00
7F00
3C00
ENDCHAR
STARTCHAR omacron
ENCODING 333
SWIDTH 406 0
DWIDTH 11 0
BBX 9 21 0 0
BITMAP
7E00
7E00
0000
0800
7E00
7F00
E700
E300
E380
E380
E380
E380
E380
E380
E380
E380
E380
E300
FF00
7F00
3C00
ENDCHAR
STARTCHAR Obreve
ENCODING 334
SWIDTH 406 0
DWIDTH 11 0
BBX 9 22 0 0
BITMAP
7600
7E00
3E00
0000
0800
7E00
7F00
E700
E300
E380
E380
E380
E380
E380
E380
E380
E380
E380
E300
FF00
7F00
3C00
ENDCHAR
STARTCHAR obreve
ENCODING 335
SWIDTH 406 0
DWIDTH 11 0
BBX 9 22 0 0
BITMAP
7600
7E00
3E00
0000
0800
7E00
7F00
E700
E300
E380
E380
E380
E380
E380
E380
E380
E380
E380
E300
FF00
7F00
3C00
ENDCHAR
STARTCHAR OE
ENCODING 338
SWIDTH 544 0
DWIDTH 14 0
BBX 12 18 0 0
BITMAP
07E0
3FF0
7FF0
7E00
EE00
EE00
EE00
EE00
EFF0
EFF0
EFE0
EE00
EE00
EE00
EE00
7FE0
7FF0
1FF0
ENDCHAR
STARTCHAR oe
ENCODING 339
SWIDTH 544 0
DWIDTH 14 0
BBX 12 17 0 0
BITMAP
1FE0
3FF0
7FE0
6E00
EE00
EE00
EE00
EFE0
EFF0
EFE0
EE00
EE00
EE00
EE00
7E00
7FF0
1FE0
ENDCHAR
STARTCHAR Racute
ENCODING 340
SWIDTH 398 0
DWIDTH 10 0
BBX 9 23 0 0
BITMAP
0E00
1E00
7C00
7000
0000
FC00
FF00
FF00
E300
E380
E380
E380
EF00
FF00
FE00
EF00
E300
E300
E300
E300
E300
E300
C300
ENDCHAR
STARTCHAR racute
ENCODING 341
SWIDTH 398 0
DWIDTH 10 0
BBX 9 23 0 0
BITMAP
0E00
1E00
7C00
7000
0000
FC00
FF00
FF00
E300
E380
E380
E380
EF00
FF00
FE00
EF00
E300
E300
E300
E300
E300
E300
C300
ENDCHAR
STARTCHAR Rcommaaccent
ENCODING 342
SWIDTH 398 0
DWIDTH 10 0
BBX 9 22 0 -4
BITMAP
FC00
FF00
FF00
E300
E380
E380
E380
EF00
FF00
FE00
EF00
E300
E300
E300
E300
E300
E300
C300
0000
1C00
1C00
1C00
ENDCHAR
STARTCHAR rcommaaccent
ENCODING 343
SWIDTH 398 0
DWIDTH 10 0
BBX 9 22 0 -4
BITMAP
FC00
FF00
FF00
E300
E380
E380
E380
EF00
FF00
FE00
EF00
E300
E300
E300
E300
E300
E300
C300
0000
1C00
1C00
1C00
ENDCHAR
STARTCHAR Rcaron
ENCODING 344
SWIDTH 398 0
DWIDTH 10 0
BBX 9 23 0 0
BITMAP
6E00
7E00
3C00
1800
0000
FC00
FF00
FF00
E300
E380
E380
E380
EF00
FF00
FE00
EF00
E300
E300
E300
E300
E300
E300
C300
ENDCHAR
STARTCHAR rcaron
ENCODING 345
SWIDTH 398 0
DWIDTH 10 0
BBX 9 23 0 0
BITMAP
6E00
7E00
3C00
1800
0000
FC00
FF00
FF00
E300
E380
E380
E380
EF00
FF00
FE00
EF00
E300
E300
E300
E300
E300
E300
C300
ENDCHAR
STARTCHAR Sacute
ENCODING 346
SWIDTH 398 0
DWIDTH 10 0
BBX 9 23 0 0
BITMAP
0600
1E00
7C00
7000
0000
3C00
7F00
FF00
E300
E380
E380
F000
7800
3C00
1E00
0F00
C700
E380
E380
E300
7F00
7E00
0800
ENDCHAR
STARTCHAR sacute
ENCODING 347
SWIDTH 398 0
DWIDTH 10 0
BBX 9 23 0 0
BITMAP
0600
1E00
7C00
7000
0000
3C00
7F00
FF00
E300
E380
E380
F000
7800
3C00
1E00
0F00
C700
E380
E380
E300
7F00
7E00
0800
ENDCHAR
STARTCHAR Scircumflex
ENCODING 348
SWIDTH 398 0
DWIDTH 10 0
BBX 9 23 0 0
BITMAP
1C00
3C00
7E00
7600
0000
3C00
7F00
FF00
E300
E380
E380
F000
7800
3C00
1E00
0F00
C700
E380
E380
E300
7F00
7E00
0800
ENDCHAR
STARTCHAR scircumflex
ENCODING 349
SWIDTH 398 0
DWIDTH 10 0
BBX 9 23 0 0
BITMAP
1C00
3C00
7E00
7600
0000
3C00
7F00
FF00
E300
E380
E380
F000
7800
3C00
1E00
0F00
C700
E380
E380
E300
7F00
7E00
0800
ENDCHAR
STARTCHAR Scedilla
ENCODING 350
SWIDTH 398 0
DWIDTH 10 0
BBX 9 23 0 -5
BITMAP
3C00
7F00
FF00
E300
E380
E380
F000
7800
3C00
1E00
0F00
C700
E380
E380
E300
7F00
7E00
1800
1800
1E00
0F00
3F00
1E00
ENDCHAR
STARTCHAR scedilla
ENCODING 351
SWIDTH 398 0
DWIDTH 10 0
BBX 9 23 0 -5
BITMAP
3C00
7F00
FF00
E300
E380
E380
F000
7800
3C00
1E00
0F00
C700
E380
E380
E300
7F00
7E00
1800
1800
1E00
0F00
3F00
1E00
ENDCHAR
STARTCHAR Scaron
ENCODING 352
SWIDTH 398 0
DWIDTH 10 0
BBX 9 23 0 0
BITMAP
3600
3E00
3C00
1C00
0000
3C00
7F00
FF00
E300
E380
E380
F000
7800
3C00
1E00
0F00
C700
E380
E380
E300
7F00
7E00
0800
ENDCHAR
STARTCHAR scaron
ENCODING 353
SWIDTH 398 0
DWIDTH 10 0
BBX 9 23 0 0
BITMAP
3600
3E00
3C00
1C00
0000
3C00
7F00
FF00
E300
E380
E380
F000
7800
3C00
1E00
0F00
C700
E380
E380
E300
7F00
7E00
0800
ENDCHAR
STARTCHAR Tcommaaccent
ENCODING 354
SWIDTH 401 0
DWIDTH 10 0
BBX 9 22 0 -4
BITMAP
FF00
FF80
7F00
1C00
1C00
1C00
1C00
1C00
1C00
1C00
1C00
1C00
1C00
1C00
1C00
1C00
1C00
0800
0000
1C00
1C00
1C00
ENDCHAR
STARTCHAR tcommaaccent
ENCODING 355
SWIDTH 401 0
DWIDTH 10 0
BBX 9 22 0 -4
BITMAP
FF00
FF80
7F00
1C00
1C00
1C00
1C00
1C00
1C00
1C00
1C00
1C00
1C00
1C00
1C00
1C00
1C00
0800
0000
1C00
1C00
1C00
ENDCHAR
STARTCHAR Tcaron
ENCODING 356
SWIDTH 401 0
DWIDTH 10 0
BBX 9 23 0 0
BITMAP
3600
3E00
3C00
1C00
0000
FF00
FF80
7F00
1C00
1C00
1C00
1C00
1C00
1C00
1C00
1C00
1C00
1C00
1C00
1C00
1C00
1C00
0800
ENDCHAR
STARTCHAR tcaron
ENCODING 357
SWIDTH 401 0
DWIDTH 10 0
BBX 9 23 0 0
BITMAP
3600
3E00
3C00
1C00
0000
FF00
FF80
7F00
1C00
1C00
1C00
1C00
1C00
1C00
1C00
1C00
1C00
1C00
1C00
1C00
1C00
1C00
0800
ENDCHAR
STARTCHAR Utilde
ENCODING 360
SWIDTH 409 0
DWIDTH 11 0
BBX 8 22 0 0
BITMAP
7B
FF
FE
00
C3
C3
C3
C3
C3
C3
C3
C3
C3
C3
C3
C3
C3
C3
E7
FF
7E
10
ENDCHAR
STARTCHAR utilde
ENCODING 361
SWIDTH 409 0
DWIDTH 11 0
BBX 8 22 0 0
BITMAP
30
FF
FF
0C
40
C3
C3
C3
C3
C3
C3
C3
C3
C3
C3
C3
C3
C3
E3
FF
7F
3C
ENDCHAR
STARTCHAR Umacron
ENCODING 362
SWIDTH 409 0
DWIDTH 11 0
BBX 8 22 0 0
BITMAP
3E
7E
7E
00
C3
C3
C3
C3
C3
C3
C3
C3
C3
C3
C3
C3
C3
C3
E7
FF
7E
10
ENDCHAR
STARTCHAR umacron
ENCODING 363
SWIDTH 409 0
DWIDTH 11 0
BBX 8 21 0 0
BITMAP
7E
7E
00
40
C3
C3
C3
C3
C3
C3
C3
C3
C3
C3
C3
C3
C3
E3
FF
7F
3C
ENDCHAR
STARTCHAR Ubreve
ENCODING 364
SWIDTH 409 0
DWIDTH 11 0
BBX 8 23 0 0
BITMAP
24
7E
7E
3C
00
C3
C3
C3
C3
C3
C3
C3
C3
C3
C3
C3
C3
C3
C3
E7
FF
7E
10
ENDCHAR
STARTCHAR ubreve
ENCODING 365
SWIDTH 409 0
DWIDTH 11 0
BBX 8 22 0 0
BITMAP
76
7E
3E
00
40
C3
C3
C3
C3
C3
C3
C3
C3
C3
C3
C3
C3
C3
E3
FF
7F
3C
ENDCHAR
STARTCHAR Uring
ENCODING 366
SWIDTH 409 0
DWIDTH 11 0
BBX 8 22 0 1
BITMAP
18
3C
3C
18
00
C3
C3
C3
C3
C3
C3
C3
C3
C3
C3
C3
C3
C3
C3
E7
FF
7E
ENDCHAR
STARTCHAR uring
ENCODING 367
SWIDTH 409 0
DWIDTH 11 0
BBX 8 22 0 0
BITMAP
3C
34
3C
00
41
C3
C3
C3
C3
C3
C3
C3
C3
C3
C3
C3
C3
C3
E3
FF
7F
3C
ENDCHAR
STARTCHAR Wcircumflex
ENCODING 372
SWIDTH 560 0
DWIDTH 15 0
BBX 13 22 0 0
BITMAP
0700
0F80
1D80
0000
4210
E738
E730
E730
EF70
6F70
6F70
6FF0
7FE0
7FE0
7DE0
3DE0
3DE0
39E0
39E0
39C0
38C0
18C0
ENDCHAR
STARTCHAR wcircumflex
ENCODING 373
SWIDTH 560 0
DWIDTH 15 0
BBX 13 22 0 0
BITMAP
0700
0F80
1D80
0000
4210
E738
E730
E730
EF70
6F70
6F70
6FF0
7FE0
7FE0
7DE0
3DE0
3DE0
39E0
39E0
39C0
38C0
18C0
ENDCHAR
STARTCHAR Ycircumflex
ENCODING 374
SWIDTH 406 0
DWIDTH 11 0
BBX 9 22 0 0
BITMAP
1C00
3E00
7E00
0000
8100
C380
E380
E700
7700
7E00
3E00
3C00
1C00
1C00
1C00
1C00
1C00
1C00
1C00
1C00
1C00
1800
ENDCHAR
STARTCHAR ycircumflex
ENCODING 375
SWIDTH 406 0
DWIDTH 11 0
BBX 9 22 0 0
BITMAP
1C00
3E00
7E00
0000
8100
C380
E380
E700
7700
7E00
3E00
3C00
1C00
1C00
1C00
1C00
1C00
1C00
1C00
1C00
1C00
1800
ENDCHAR
STARTCHAR Ydieresis
ENCODING 376
SWIDTH 406 0
DWIDTH 11 0
BBX 9 22 0 0
BITMAP
2200
7600
7600
0000
8100
C380
E380
E700
7700
7E00
3E00
3C00
1C00
1C00
1C00
1C00
1C00
1C00
1C00
1C00
1C00
1800
ENDCHAR
STARTCHAR Zacute
ENCODING 377
SWIDTH 411 0
DWIDTH 11 0
BBX 9 22 0 0
BITMAP
0E00
3E00
7800
0000
7F00
FF80
FF00
0700
0700
0E00
0E00
0C00
1C00
1C00
3800
3800
7000
7000
6000
FF00
FF00
FF00
ENDCHAR
STARTCHAR zacute
ENCODING 378
SWIDTH 411 0
DWIDTH 11 0
BBX 9 22 0 0
BITMAP
0E00
3E00
7800
0000
7F00
FF80
FF00
0700
0700
0E00
0E00
0C00
1C00
1C00
3800
3800
7000
7000
6000
FF00
FF00
FF00
ENDCHAR
STARTCHAR Zdotaccent
ENCODING 379
SWIDTH 411 0
DWIDTH 11 0
BBX 9 21 0 0
BITMAP
1C00
1C00
0800
7F00
FF80
FF00
0700
0700
0E00
0E00
0C00
1C00
1C00
3800
3800
7000
7000
6000
FF00
FF00
FF00
ENDCHAR
STARTCHAR zdotaccent
ENCODING 380
SWIDTH 411 0
DWIDTH 11 0
BBX 9 21 0 0
BITMAP
1C00
1C00
0800
7F00
FF80
FF00
0700
0700
0E00
0E00
0C00
1C00
1C00
3800
3800
7000
7000
6000
FF00
FF00
FF00
ENDCHAR
STARTCHAR Zcaron
ENCODING 381
SWIDTH 419 0
DWIDTH 11 0
BBX 9 22 0 0
BITMAP
7E00
3E00
1C00
0000
7F00
FF80
FF00
0700
0700
0E00
0E00
0C00
1C00
1C00
3800
3800
7000
7000
6000
FF00
FF00
FF00
ENDCHAR
STARTCHAR zcaron
ENCODING 382
SWIDTH 419 0
DWIDTH 11 0
BBX 9 22 0 0
BITMAP
7E00
3E00
1C00
0000
7F00
FF80
FF00
0700
0700
0E00
0E00
0C00
1C00
1C00
3800
3800
7000
7000
6000
FF00
FF00
FF00
ENDCHAR
STARTCHAR AEacute
ENCODING 508
SWIDTH 665 0
DWIDTH 17 0
BBX 15 22 0 0
BITMAP
00F0
01E0
0380
0000
00FC
01FE
01FE
03C0
03C0
07C0
07C0
0FC0
0FFE
1DFE
1DFC
1FC0
3FC0
31C0
71C0
71FC
E1FE
E1FE
ENDCHAR
STARTCHAR aeacute
ENCODING 509
SWIDTH 665 0
DWIDTH 17 0
BBX 15 22 0 0
BITMAP
00F0
01E0
0380
0000
00FC
01FE
01FE
03C0
03C0
07C0
07C0
0FC0
0FFE
1DFE
1DFC
1FC0
3FC0
31C0
71C0
71FC
E1FE
E1FE
ENDCHAR
STARTCHAR Oslashacute
ENCODING 510
SWIDTH 406 0
DWIDTH 11 0
BBX 9 22 0 0
BITMAP
1E00
3C00
7800
0000
0900
7F80
7F80
FF00
FF00
FF80
FF80
FF80
FF80
FF80
FF80
FF80
FF80
FF80
FF00
FF00
FF00
FC00
ENDCHAR
STARTCHAR oslashacute
ENCODING 511
SWIDTH 406 0
DWIDTH 11 0
BBX 9 18 0 0
BITMAP
0900
7F80
7F80
FF00
FF00
FF80
FF80
FF80
FF80
FF80
FF80
FF80
FF80
FF80
FF00
FF00
FF00
FC00
ENDCHAR
STARTCHAR circumflex
ENCODING 710
SWIDTH 237 0
DWIDTH 6 0
BBX 6 4 0 19
BITMAP
30
78
FC
DC
ENDCHAR
STARTCHAR caron
ENCODING 711
SWIDTH 232 0
DWIDTH 6 0
BBX 6 4 0 19
BITMAP
D8
FC
78
70
ENDCHAR
STARTCHAR breve
ENCODING 728
SWIDTH 241 0
DWIDTH 6 0
BBX 6 3 0 19
BITMAP
CC
FC
FC
ENDCHAR
STARTCHAR dotaccent
ENCODING 729
SWIDTH 82 0
DWIDTH 2 0
BBX 2 3 0 18
BITMAP
C0
C0
C0
ENDCHAR
STARTCHAR ring
ENCODING 730
SWIDTH 140 0
DWIDTH 4 0
BBX 4 3 0 19
BITMAP
E0
B0
E0
ENDCHAR
STARTCHAR tilde
ENCODING 732
SWIDTH 319 0
DWIDTH 8 0
BBX 8 4 0 18
BITMAP
70
FF
FF
0E
ENDCHAR
STARTCHAR Wgrave
ENCODING 7808
SWIDTH 560 0
DWIDTH 15 0
BBX 13 22 0 0
BITMAP
0E00
0780
03C0
0000
4210
E738
E730
E730
EF70
6F70
6F70
6FF0
7FE0
7FE0
7DE0
3DE0
3DE0
39E0
39E0
39C0
38C0
18C0
ENDCHAR
STARTCHAR wgrave
ENCODING 7809
SWIDTH 560 0
DWIDTH 15 0
BBX 13 22 0 0
BITMAP
0E00
0780
03C0
0000
4210
E738
E730
E730
EF70
6F70
6F70
6FF0
7FE0
7FE0
7DE0
3DE0
3DE0
39E0
39E0
39C0
38C0
18C0
ENDCHAR
STARTCHAR Wacute
ENCODING 7810
SWIDTH 560 0
DWIDTH 15 0
BBX 13 22 0 0
BITMAP
0380
0F80
0E00
0000
4210
E738
E730
E730
EF70
6F70
6F70
6FF0
7FE0
7FE0
7DE0
3DE0
3DE0
39E0
39E0
39C0
38C0
18C0
ENDCHAR
STARTCHAR wacute
ENCODING 7811
SWIDTH 560 0
DWIDTH 15 0
BBX 13 22 0 0
BITMAP
0380
0F80
0E00
0000
4210
E738
E730
E730
EF70
6F70
6F70
6FF0
7FE0
7FE0
7DE0
3DE0
3DE0
39E0
39E0
39C0
38C0
18C0
ENDCHAR
STARTCHAR Wdieresis
ENCODING 7812
SWIDTH 560 0
DWIDTH 15 0
BBX 13 22 0 0
BITMAP
0880
1D80
1D80
0000
4210
E738
E730
E730
EF70
6F70
6F70
6FF0
7FE0
7FE0
7DE0
3DE0
3DE0
39E0
39E0
39C0
38C0
18C0
ENDCHAR
STARTCHAR wdieresis
ENCODING 7813
SWIDTH 560 0
DWIDTH 15 0
BBX 13 22 0 0
BITMAP
0880
1D80
1D80
0000
4210
E738
E730
E730
EF70
6F70
6F70
6FF0
7FE0
7FE0
7DE0
3DE0
3DE0
39E0
39E0
39C0
38C0
18C0
ENDCHAR
STARTCHAR Ygrave
ENCODING 7922
SWIDTH 406 0
DWIDTH 11 0
BBX 9 22 0 0
BITMAP
3800
3E00
0F00
0000
8100
C380
E380
E700
7700
7E00
3E00
3C00
1C00
1C00
1C00
1C00
1C00
1C00
1C00
1C00
1C00
1800
ENDCHAR
STARTCHAR ygrave
ENCODING 7923
SWIDTH 406 0
DWIDTH 11 0
BBX 9 22 0 0
BITMAP
3800
3E00
0F00
0000
8100
C380
E380
E700
7700
7E00
3E00
3C00
1C00
1C00
1C00
1C00
1C00
1C00
1C00
1C00
1C00
1800
ENDCHAR
STARTCHAR endash
ENCODING 8211
SWIDTH 349 0
DWIDTH 9 0
BBX 8 3 0 7
BITMAP
FE
FF
7E
ENDCHAR
STARTCHAR emdash
ENCODING 8212
SWIDTH 349 0
DWIDTH 9 0
BBX 8 3 0 7
BITMAP
FE
FF
7E
ENDCHAR
STARTCHAR quoteleft
ENCODING 8216
SWIDTH 131 0
DWIDTH 3 0
BBX 2 4 0 14
BITMAP
C0
C0
C0
C0
ENDCHAR
STARTCHAR quoteright
ENCODING 8217
SWIDTH 131 0
DWIDTH 3 0
BBX 2 4 0 14
BITMAP
C0
C0
C0
C0
ENDCHAR
STARTCHAR quotedblleft
ENCODING 8220
SWIDTH 200 0
DWIDTH 5 0
BBX 4 4 0 14
BITMAP
F0
F0
F0
F0
ENDCHAR
STARTCHAR quotedblright
ENCODING 8221
SWIDTH 200 0
DWIDTH 5 0
BBX 4 4 0 14
BITMAP
F0
F0
F0
F0
ENDCHAR
STARTCHAR bullet
ENCODING 8226
SWIDTH 155 0
DWIDTH 4 0
BBX 4 4 0 8
BITMAP
40
E0
F0
E0
ENDCHAR
STARTCHAR fraction
ENCODING 8260
SWIDTH 260 0
DWIDTH 7 0
BBX 9 18 -1 0
BITMAP
0100
0380
0700
0700
0600
0E00
0E00
1C00
1C00
1800
3800
3800
7000
7000
6000
E000
E000
C000
ENDCHAR
STARTCHAR Euro
ENCODING 8364
SWIDTH 370 0
DWIDTH 10 0
BBX 10 18 -1 0
BITMAP
0400
1F80
3F80
3F80
7000
7000
7000
FF00
FF00
7000
7000
FF00
FF00
7000
3080
3FC0
3F80
0F00
ENDCHAR
STARTCHAR trademark
ENCODING 8482
SWIDTH 650 0
DWIDTH 17 0
BBX 16 8 0 10
BITMAP
FE43
FEE7
38E7
38EF
38FF
38DB
38DB
00C0
ENDCHAR
STARTCHAR commaaccent
ENCODING 63171
SWIDTH 260 0
DWIDTH 7 0
BBX 2 4 2 -5
BITMAP
C0
C0
C0
C0
ENDCHAR
STARTCHAR Acute
ENCODING 63177
SWIDTH 247 0
DWIDTH 6 0
BBX 6 4 0 19
BITMAP
08
3C
F8
E0
ENDCHAR
STARTCHAR Caron
ENCODING 63178
SWIDTH 232 0
DWIDTH 6 0
BBX 6 4 0 19
BITMAP
D8
FC
78
70
ENDCHAR
STARTCHAR Dieresis
ENCODING 63179
SWIDTH 229 0
DWIDTH 6 0
BBX 6 3 0 19
BITMAP
DC
DC
DC
ENDCHAR
STARTCHAR Grave
ENCODING 63182
SWIDTH 222 0
DWIDTH 6 0
BBX 6 4 0 19
BITMAP
E0
F0
7C
1C
ENDCHAR
STARTCHAR Macron
ENCODING 63184
SWIDTH 231 0
DWIDTH 6 0
BBX 6 3 0 18
BITMAP
FC
FC
78
ENDCHAR
STARTCHAR uniF8FF
ENCODING 63743
SWIDTH 0 0
DWIDTH 0 0
BBX 1 1 0 0
BITMAP
00
ENDCHAR
STARTCHAR .notdef
ENCODING -1
SWIDTH 210 0
DWIDTH 5 0
BBX 1 1 0 0
BITMAP
00
ENDCHAR
STARTCHAR Ring
ENCODING -1
SWIDTH 140 0
DWIDTH 4 0
BBX 4 3 0 19
BITMAP
E0
B0
E0
ENDCHAR
STARTCHAR Tilde
ENCODING -1
SWIDTH 319 0
DWIDTH 8 0
BBX 8 3 0 17
BITMAP
7F
FF
FE
ENDCHAR
STARTCHAR Circumflex
ENCODING -1
SWIDTH 237 0
DWIDTH 6 0
BBX 6 4 0 19
BITMAP
30
78
FC
DC
ENDCHAR
STARTCHAR Cedilla
ENCODING -1
SWIDTH 201 0
DWIDTH 5 0
BBX 5 7 0 -6
BITMAP
40
60
78
78
98
F8
F0
ENDCHAR
STARTCHAR commaaccent.cap
ENCODING -1
SWIDTH 260 0
DWIDTH 7 0
BBX 2 4 2 -5
BITMAP
C0
C0
C0
C0
ENDCHAR
STARTCHAR Breve
ENCODING -1
SWIDTH 241 0
DWIDTH 6 0
BBX 6 3 0 19
BITMAP
CC
FC
FC
ENDCHAR
ENDFONT
